<?xml version="1.0" encoding="utf-8"?>
<!-- Generator: Adobe Illustrator 24.1.1, SVG Export Plug-In . SVG Version: 6.00 Build 0)  -->
<svg version="1.1" id="레이어_1" xmlns="http://www.w3.org/2000/svg" xmlns:xlink="http://www.w3.org/1999/xlink" x="0px"
	 y="0px" viewBox="0 0 300 300" style="enable-background:new 0 0 300 300;" xml:space="preserve">
<style type="text/css">
	.st0{fill:#0080FF;}
	.st1{fill:#FFFFFF;stroke:#FFFFFF;stroke-width:0.25;stroke-miterlimit:10;}
</style>
<g>
	<rect class="st0" width="300" height="300"/>
</g>
<g>
	<g>
		<g>
			<g>
				<path class="st1" d="M86.98,136.02v-17.04h2.8v17.04H86.98z M88.47,128.95v-2.68h9.69v2.68H88.47z M96.48,136.02v-17.04h2.8
					v17.04H96.48z"/>
				<path class="st1" d="M107.22,136.2c-1.63,0-2.9-0.46-3.79-1.39s-1.34-2.23-1.34-3.91v-1.98c0-1.66,0.45-2.95,1.34-3.87
					s2.16-1.37,3.79-1.37s2.9,0.46,3.79,1.37s1.34,2.2,1.34,3.87v2.02c0,1.67-0.45,2.97-1.34,3.88S108.85,136.2,107.22,136.2z
					 M107.22,133.52c0.74,0,1.32-0.23,1.72-0.68s0.61-1.09,0.61-1.9v-2.02c0-0.81-0.2-1.44-0.61-1.89s-0.98-0.67-1.72-0.67
					c-0.73,0-1.31,0.22-1.72,0.67s-0.62,1.07-0.62,1.89v2.02c0,0.81,0.21,1.45,0.62,1.9S106.48,133.52,107.22,133.52z"/>
				<path class="st1" d="M114.91,136.02v-12.16h2.8v12.16H114.91z M122.12,136.02v-7.37c0-0.73-0.2-1.3-0.59-1.69
					s-0.95-0.59-1.66-0.59c-0.69,0-1.22,0.19-1.59,0.56s-0.56,0.9-0.56,1.57l-0.25-2.52c0.36-0.73,0.82-1.3,1.37-1.7
					s1.22-0.6,1.99-0.6c1.3,0,2.31,0.43,3.02,1.29s1.07,2.08,1.07,3.66v7.38H122.12z"/>
				<path class="st1" d="M131.52,136.22c-1.32,0-2.34-0.45-3.06-1.34s-1.08-2.15-1.08-3.77v-2.32c0-1.63,0.36-2.9,1.07-3.79
					s1.72-1.34,3.02-1.34c0.68,0,1.3,0.19,1.88,0.57s1.03,0.92,1.37,1.62l-0.25,2.59c0-0.47-0.08-0.87-0.25-1.2s-0.4-0.58-0.71-0.75
					s-0.69-0.26-1.14-0.26c-0.7,0-1.23,0.22-1.62,0.67s-0.57,1.08-0.57,1.9v2.3c0,0.8,0.19,1.43,0.57,1.87s0.92,0.66,1.62,0.66
					c0.45,0,0.82-0.09,1.14-0.26s0.55-0.43,0.71-0.76s0.25-0.72,0.25-1.18l0.16,2.67c-0.23,0.6-0.6,1.1-1.13,1.51
					S132.31,136.22,131.52,136.22z M131.92,140.97c-0.94,0-1.78-0.17-2.53-0.51s-1.32-0.82-1.73-1.44l1.89-1.72
					c0.29,0.36,0.64,0.64,1.05,0.84s0.84,0.3,1.28,0.3c0.78,0,1.41-0.22,1.88-0.65s0.7-1.04,0.7-1.83v-12.09h2.8v11.8
					c0,1.69-0.46,2.99-1.39,3.92S133.62,140.97,131.92,140.97z"/>
				<path class="st1" d="M145.53,136.2c-0.82,0-1.61-0.08-2.36-0.24s-1.46-0.4-2.12-0.71s-1.26-0.7-1.82-1.16l1.49-2.24
					c0.66,0.55,1.39,0.97,2.21,1.26s1.68,0.43,2.6,0.43c1.14,0,2.03-0.2,2.65-0.61s0.94-0.98,0.94-1.72v-0.01
					c0-0.57-0.16-1.01-0.47-1.31s-0.73-0.53-1.25-0.67s-1.08-0.27-1.69-0.37c-0.65-0.1-1.31-0.23-1.97-0.38s-1.28-0.39-1.84-0.71
					s-1.01-0.79-1.35-1.39s-0.51-1.41-0.51-2.42v-0.01c0-1.63,0.54-2.88,1.61-3.77s2.59-1.34,4.55-1.34c0.91,0,1.83,0.15,2.74,0.45
					s1.79,0.74,2.61,1.33l-1.36,2.31c-0.66-0.48-1.32-0.83-2-1.07s-1.34-0.36-1.99-0.36c-1.08,0-1.91,0.2-2.5,0.59
					s-0.88,0.95-0.88,1.67v0.01c0,0.59,0.17,1.04,0.52,1.35s0.8,0.54,1.36,0.69s1.16,0.29,1.81,0.42c0.64,0.13,1.28,0.28,1.92,0.46
					s1.22,0.44,1.74,0.77s0.94,0.8,1.26,1.39s0.47,1.36,0.47,2.3v0.02c0,1.61-0.56,2.85-1.67,3.73S147.55,136.2,145.53,136.2z"/>
				<path class="st1" d="M154.15,121.79v-2.8h2.79v2.8H154.15z M154.15,136.02v-12.16h2.79v12.16H154.15z"/>
				<path class="st1" d="M159.66,136.02v-12.16h2.8v12.16H159.66z M166.87,136.02v-7.37c0-0.73-0.2-1.3-0.59-1.69
					s-0.95-0.59-1.66-0.59c-0.69,0-1.22,0.19-1.59,0.56s-0.56,0.9-0.56,1.57l-0.25-2.52c0.36-0.73,0.82-1.3,1.37-1.7
					s1.22-0.6,1.99-0.6c1.3,0,2.31,0.43,3.02,1.29s1.07,2.08,1.07,3.66v7.38H166.87z"/>
				<path class="st1" d="M176.44,131.35l3.38-12.36h2.11l3.38,12.36l2.6-12.36h2.89l-4.04,17.04h-2.73l-3.08-11.91l-3.22,11.91
					h-2.73l-4.04-17.04h2.89L176.44,131.35z"/>
				<path class="st1" d="M196.97,136.2c-1.63,0-2.9-0.46-3.79-1.39s-1.34-2.23-1.34-3.91v-1.98c0-1.66,0.45-2.95,1.34-3.87
					s2.16-1.37,3.79-1.37s2.9,0.46,3.79,1.37s1.34,2.2,1.34,3.87v2.02c0,1.67-0.45,2.97-1.34,3.88S198.6,136.2,196.97,136.2z
					 M196.97,133.52c0.74,0,1.32-0.23,1.72-0.68s0.61-1.09,0.61-1.9v-2.02c0-0.81-0.2-1.44-0.61-1.89s-0.98-0.67-1.72-0.67
					c-0.73,0-1.31,0.22-1.72,0.67s-0.62,1.07-0.62,1.89v2.02c0,0.81,0.21,1.45,0.62,1.9S196.23,133.52,196.97,133.52z"/>
				<path class="st1" d="M204.66,136.02v-12.16h2.8v12.16H204.66z M211.87,136.02v-7.37c0-0.73-0.2-1.3-0.59-1.69
					s-0.95-0.59-1.66-0.59c-0.69,0-1.22,0.19-1.59,0.56s-0.56,0.9-0.56,1.57l-0.25-2.52c0.36-0.73,0.82-1.3,1.37-1.7
					s1.22-0.6,1.99-0.6c1.3,0,2.31,0.43,3.02,1.29s1.07,2.08,1.07,3.66v7.38H211.87z"/>
			</g>
		</g>
		<g>
			<g>
				<path class="st1" d="M40.14,174.17v-3.93l9.33-12.36c0.48-0.63,0.86-1.28,1.12-1.95c0.27-0.67,0.4-1.3,0.4-1.89V154
					c0-0.9-0.28-1.6-0.83-2.1c-0.55-0.49-1.33-0.74-2.35-0.74c-0.96,0-1.75,0.3-2.36,0.9c-0.61,0.6-0.97,1.45-1.09,2.55v0.02h-4.56
					v-0.02c0.26-2.45,1.09-4.34,2.5-5.69c1.41-1.34,3.23-2.01,5.47-2.01c2.47,0,4.39,0.61,5.75,1.84c1.36,1.22,2.04,2.96,2.04,5.19
					v0.02c0,1.09-0.21,2.2-0.62,3.32c-0.41,1.13-0.99,2.17-1.72,3.14l-7.24,9.5h9.72v4.25H40.14z"/>
				<path class="st1" d="M67.12,174.44c-2.62,0-4.59-0.69-5.91-2.07c-1.32-1.38-1.98-3.24-1.98-5.59v-12.26
					c0-2.39,0.66-4.26,1.99-5.62c1.33-1.36,3.29-2.04,5.89-2.04c2.61,0,4.58,0.68,5.9,2.03c1.32,1.36,1.99,3.23,1.99,5.63v12.26
					c0,2.39-0.67,4.26-1.99,5.62C71.68,173.76,69.72,174.44,67.12,174.44z M67.12,170.19c1.22,0,2.11-0.36,2.64-1.09
					c0.54-0.72,0.81-1.72,0.81-2.98v-10.97c0-1.27-0.27-2.27-0.81-2.99c-0.54-0.72-1.42-1.08-2.64-1.08s-2.11,0.36-2.64,1.08
					c-0.54,0.72-0.81,1.71-0.81,2.99v10.97c0,1.26,0.27,2.25,0.81,2.98C65.01,169.83,65.89,170.19,67.12,170.19z"/>
				<path class="st1" d="M78.84,174.17v-3.93l9.33-12.36c0.48-0.63,0.86-1.28,1.12-1.95c0.27-0.67,0.4-1.3,0.4-1.89V154
					c0-0.9-0.28-1.6-0.83-2.1c-0.55-0.49-1.33-0.74-2.35-0.74c-0.96,0-1.75,0.3-2.36,0.9c-0.61,0.6-0.97,1.45-1.09,2.55v0.02h-4.56
					v-0.02c0.26-2.45,1.09-4.34,2.5-5.69c1.41-1.34,3.23-2.01,5.47-2.01c2.47,0,4.39,0.61,5.75,1.84c1.36,1.22,2.04,2.96,2.04,5.19
					v0.02c0,1.09-0.21,2.2-0.62,3.32c-0.41,1.13-0.99,2.17-1.72,3.14l-7.24,9.5h9.72v4.25H78.84z"/>
				<path class="st1" d="M105.65,174.44c-2.1,0-3.85-0.65-5.24-1.94c-1.39-1.29-2.22-3.12-2.48-5.48V167h4.43v0.02
					c0.12,0.99,0.48,1.76,1.06,2.31c0.58,0.55,1.34,0.83,2.26,0.83c1.05,0,1.86-0.35,2.44-1.05c0.58-0.7,0.86-1.68,0.86-2.94v-2.26
					c0-1.26-0.28-2.24-0.83-2.93c-0.55-0.69-1.33-1.04-2.33-1.04c-0.69,0-1.32,0.19-1.88,0.56c-0.56,0.37-1.01,0.89-1.33,1.56h-4.1
					v-14.86h14.12v4.25h-9.69v5.42c0.43-0.38,0.96-0.68,1.58-0.89c0.62-0.21,1.24-0.32,1.87-0.32c2.23,0,3.95,0.72,5.18,2.16
					c1.22,1.44,1.84,3.47,1.84,6.09v2.26c0,2.63-0.68,4.67-2.03,6.11C110.04,173.72,108.12,174.44,105.65,174.44z"/>
				<path class="st1" d="M127.48,174.17v-26.98h4.43v26.98H127.48z M129.61,163.7v-4.25h8.63c1.08,0,1.94-0.37,2.61-1.1
					c0.66-0.74,0.99-1.7,0.99-2.88c0-1.22-0.33-2.2-0.98-2.93c-0.66-0.73-1.53-1.09-2.62-1.09h-8.63v-4.25h8.5
					c1.67,0,3.12,0.34,4.36,1.03c1.24,0.69,2.2,1.65,2.89,2.89c0.69,1.24,1.04,2.69,1.04,4.36c0,1.66-0.35,3.11-1.04,4.34
					c-0.69,1.24-1.66,2.2-2.9,2.88c-1.24,0.68-2.69,1.02-4.35,1.02H129.61z"/>
				<path class="st1" d="M157.39,174.44c-2.58,0-4.59-0.73-6-2.2c-1.42-1.47-2.12-3.53-2.12-6.19v-3.14c0-2.63,0.71-4.68,2.12-6.12
					c1.42-1.45,3.42-2.17,6-2.17s4.59,0.72,6,2.17c1.42,1.45,2.12,3.49,2.12,6.12v3.19c0,2.65-0.71,4.7-2.12,6.15
					C161.97,173.72,159.97,174.44,157.39,174.44z M157.39,170.19c1.17,0,2.08-0.36,2.73-1.08c0.64-0.72,0.96-1.72,0.96-3.01v-3.19
					c0-1.29-0.32-2.28-0.96-2.99s-1.55-1.06-2.73-1.06c-1.16,0-2.07,0.35-2.72,1.06s-0.97,1.7-0.97,2.99v3.19
					c0,1.29,0.33,2.29,0.97,3.01C155.32,169.84,156.22,170.19,157.39,170.19z"/>
				<path class="st1" d="M169.57,174.17v-19.26h4.62v19.26H169.57z M180.3,159.86c-0.29-0.32-0.65-0.57-1.09-0.73
					c-0.44-0.17-0.94-0.25-1.51-0.25c-1.11,0-1.98,0.33-2.59,0.99c-0.61,0.66-0.92,1.58-0.92,2.76l-0.39-4.36
					c0.56-1.14,1.28-2.03,2.18-2.67c0.9-0.64,1.88-0.96,2.96-0.96c0.84,0,1.6,0.13,2.28,0.38c0.68,0.25,1.27,0.63,1.78,1.12
					L180.3,159.86z"/>
				<path class="st1" d="M183.36,158.78v-3.88h9.05v3.88H183.36z M190.04,174.26c-1.65,0-2.84-0.44-3.58-1.32
					c-0.74-0.88-1.11-2.14-1.11-3.79V149.3h4.43v19.24c0,0.46,0.09,0.82,0.28,1.08s0.46,0.39,0.82,0.39h1.54v4.25H190.04z"/>
				<path class="st1" d="M194.8,158.69v-3.79h10v3.79H194.8z M196.84,174.17v-21.88c0-1.69,0.39-2.97,1.17-3.82s1.99-1.28,3.64-1.28
					h3.15v4.06h-2.43c-0.38,0-0.66,0.15-0.83,0.44c-0.17,0.29-0.26,0.63-0.26,1.03v21.45H196.84z"/>
				<path class="st1" d="M214.95,174.44c-2.59,0-4.59-0.73-6-2.2c-1.42-1.47-2.13-3.53-2.13-6.19v-3.14c0-2.63,0.71-4.68,2.13-6.12
					c1.42-1.45,3.42-2.17,6-2.17c2.58,0,4.59,0.72,6,2.17c1.42,1.45,2.13,3.49,2.13,6.12v3.19c0,2.65-0.71,4.7-2.13,6.15
					C219.53,173.72,217.53,174.44,214.95,174.44z M214.95,170.19c1.17,0,2.08-0.36,2.73-1.08c0.64-0.72,0.96-1.72,0.96-3.01v-3.19
					c0-1.29-0.32-2.28-0.96-2.99c-0.64-0.71-1.55-1.06-2.73-1.06c-1.16,0-2.07,0.35-2.72,1.06c-0.65,0.71-0.97,1.7-0.97,2.99v3.19
					c0,1.29,0.33,2.29,0.97,3.01C212.88,169.84,213.78,170.19,214.95,170.19z"/>
				<path class="st1" d="M231.57,147.19v21.32c0,0.46,0.12,0.82,0.35,1.08c0.23,0.26,0.57,0.39,1,0.39h1.32v4.25h-2.41
					c-1.48,0-2.64-0.45-3.46-1.34c-0.82-0.89-1.23-2.15-1.23-3.77v-21.93H231.57z"/>
				<path class="st1" d="M237.06,151.62v-4.43h4.42v4.43H237.06z M237.06,174.17v-19.26h4.42v19.26H237.06z"/>
				<path class="st1" d="M253.34,174.44c-2.59,0-4.59-0.73-6-2.2c-1.42-1.47-2.13-3.53-2.13-6.19v-3.14c0-2.63,0.71-4.68,2.13-6.12
					c1.42-1.45,3.42-2.17,6-2.17c2.58,0,4.59,0.72,6,2.17c1.42,1.45,2.13,3.49,2.13,6.12v3.19c0,2.65-0.71,4.7-2.13,6.15
					C257.93,173.72,255.93,174.44,253.34,174.44z M253.34,170.19c1.17,0,2.08-0.36,2.73-1.08c0.64-0.72,0.96-1.72,0.96-3.01v-3.19
					c0-1.29-0.32-2.28-0.96-2.99c-0.64-0.71-1.55-1.06-2.73-1.06c-1.16,0-2.07,0.35-2.72,1.06c-0.65,0.71-0.97,1.7-0.97,2.99v3.19
					c0,1.29,0.33,2.29,0.97,3.01C251.28,169.84,252.18,170.19,253.34,170.19z"/>
			</g>
		</g>
	</g>
</g>
</svg>
